<svg width="15" height="15" viewBox="0 0 15 15" fill="none" xmlns="http://www.w3.org/2000/svg">
<path d="M7.03126 3.40625C9.00001 3.40625 10.625 5.03125 10.625 7C10.625 9 9.00001 10.5938 7.03126 10.5938C5.03126 10.5938 3.43751 9 3.43751 7C3.43751 5.03125 5.03126 3.40625 7.03126 3.40625ZM7.03126 9.34375C8.31251 9.34375 9.34376 8.3125 9.34376 7C9.34376 5.71875 8.31251 4.6875 7.03126 4.6875C5.71876 4.6875 4.68751 5.71875 4.68751 7C4.68751 8.3125 5.75001 9.34375 7.03126 9.34375ZM11.5938 3.28125C11.5938 3.75 11.2188 4.125 10.75 4.125C10.2813 4.125 9.90626 3.75 9.90626 3.28125C9.90626 2.8125 10.2813 2.4375 10.75 2.4375C11.2188 2.4375 11.5938 2.8125 11.5938 3.28125ZM13.9688 4.125C14.0313 5.28125 14.0313 8.75 13.9688 9.90625C13.9063 11.0312 13.6563 12 12.8438 12.8438C12.0313 13.6562 11.0313 13.9062 9.90626 13.9688C8.75001 14.0312 5.28126 14.0312 4.12501 13.9688C3.00001 13.9062 2.03126 13.6562 1.18751 12.8438C0.375006 12 0.125006 11.0312 0.0625062 9.90625C6.19888e-06 8.75 6.19888e-06 5.28125 0.0625062 4.125C0.125006 3 0.375006 2 1.18751 1.1875C2.03126 0.375 3.00001 0.125 4.12501 0.0625C5.28126 0 8.75001 0 9.90626 0.0625C11.0313 0.125 12.0313 0.375 12.8438 1.1875C13.6563 2 13.9063 3 13.9688 4.125ZM12.4688 11.125C12.8438 10.2188 12.75 8.03125 12.75 7C12.75 6 12.8438 3.8125 12.4688 2.875C12.2188 2.28125 11.75 1.78125 11.1563 1.5625C10.2188 1.1875 8.03126 1.28125 7.03126 1.28125C6.00001 1.28125 3.81251 1.1875 2.90626 1.5625C2.28126 1.8125 1.81251 2.28125 1.56251 2.875C1.18751 3.8125 1.28126 6 1.28126 7C1.28126 8.03125 1.18751 10.2188 1.56251 11.125C1.81251 11.75 2.28126 12.2188 2.90626 12.4688C3.81251 12.8438 6.00001 12.75 7.03126 12.75C8.03126 12.75 10.2188 12.8438 11.1563 12.4688C11.75 12.2188 12.25 11.75 12.4688 11.125Z" fill="#FF8000"/>
</svg>
