<svg width="14" height="14" viewBox="0 0 14 14" fill="none" xmlns="http://www.w3.org/2000/svg">
<path d="M3.12501 13.9688H0.218756V4.625H3.12501V13.9688ZM1.65626 3.375C0.750006 3.375 6.19888e-06 2.59375 6.19888e-06 1.65625C6.19888e-06 0.75 0.750006 0 1.65626 0C2.59376 0 3.34376 0.75 3.34376 1.65625C3.34376 2.59375 2.59376 3.375 1.65626 3.375ZM13.9688 13.9688H11.0938V9.4375C11.0938 8.34375 11.0625 6.96875 9.56251 6.96875C8.06251 6.96875 7.84376 8.125 7.84376 9.34375V13.9688H4.93751V4.625H7.71876V5.90625H7.75001C8.15626 5.1875 9.09376 4.40625 10.5 4.40625C13.4375 4.40625 14 6.34375 14 8.84375V13.9688H13.9688Z" fill="#FF8000"/>
</svg>
